<?xml version="1.0" encoding="UTF-8"?>
<svg width="128" height="128" viewBox="0 0 128 128" xmlns="http://www.w3.org/2000/svg">
  <!-- Background circle -->
  <circle cx="64" cy="64" r="60" fill="#2563eb"/>
  
  <!-- Stylized "P" -->
  <path d="M48 32h32c8.8 0 16 7.2 16 16 0 6.6-4 12.2-9.7 14.7C90.3 66.2 96 71.8 96 80c0 8.8-7.2 16-16 16H48V32zm8 8v24h16c4.4 0 8-3.6 8-8s-3.6-8-8-8H56zm0 32v24h24c4.4 0 8-3.6 8-8s-3.6-8-8-8H56z" fill="white"/>
  
  <!-- Decorative elements -->
  <circle cx="64" cy="64" r="56" fill="none" stroke="white" stroke-width="2" stroke-opacity="0.2"/>
  <circle cx="64" cy="64" r="48" fill="none" stroke="white" stroke-width="1" stroke-opacity="0.1"/>
</svg> 